<svg version="1.1" id="Capa_1" xmlns="http://www.w3.org/2000/svg" xmlnsXlink="http://www.w3.org/1999/xlink" x="0px" y="0px" viewBox="0 0 512 512" style="enable-background:new 0 0 512 512;" xml:space="preserve">
<path style="fill: rgb(212, 59, 59);" d="M0,272V48c0-8.832,7.168-16,16-16h144v256H16C7.168,288,0,280.832,0,272z" id="id_103"></path>
<path style="fill: rgb(255, 0, 0);" d="M448,320H320v96c0,35.296-28.704,64-64,64h-48c-8.832,0-16-7.168-16-16v-75.744l-61.888-108.32
	C128.704,277.504,128,274.784,128,272V48c0-8.832,7.168-16,16-16h256.8c25.28,0,48.256,14.944,58.464,38.016l51.328,115.488
	C511.52,187.552,512,189.76,512,192v64C512,291.296,483.296,320,448,320z" id="id_104"></path>
<g>
</g>
<g>
</g>
<g>
</g>
<g>
</g>
<g>
</g>
<g>
</g>
<g>
</g>
<g>
</g>
<g>
</g>
<g>
</g>
<g>
</g>
<g>
</g>
<g>
</g>
<g>
</g>
<g>
</g>
</svg>